<?xml version="1.0" standalone="no"?>
<!DOCTYPE svg PUBLIC "-//W3C//DTD SVG 20010904//EN"
 "http://www.w3.org/TR/2001/REC-SVG-20010904/DTD/svg10.dtd">
<svg version="1.0" xmlns="http://www.w3.org/2000/svg"
 width="1125.000000pt" height="1125.000000pt" viewBox="0 0 1125.000000 1125.000000"
 preserveAspectRatio="xMidYMid meet">
<metadata>
Created by potrace 1.14, written by Peter Selinger 2001-2017
</metadata>
<g transform="translate(0.000000,1125.000000) scale(0.100000,-0.100000)"
fill="#000000" stroke="none">
<path d="M0 5625 l0 -5625 5625 0 5625 0 0 5625 0 5625 -5625 0 -5625 0 0
-5625z m5876 4554 c411 -24 805 -98 1176 -220 1470 -485 2598 -1687 2987
-3182 326 -1251 107 -2582 -603 -3660 -1074 -1632 -3071 -2399 -4963 -1906
-1585 412 -2840 1660 -3257 3240 -316 1196 -136 2470 498 3522 617 1025 1608
1767 2761 2067 462 120 933 167 1401 139z"/>
<path d="M6100 7241 c-822 -274 -1510 -505 -1527 -515 -18 -9 -41 -33 -52 -54
-10 -20 -242 -709 -516 -1530 -408 -1226 -496 -1500 -491 -1527 9 -44 57 -92
101 -101 27 -5 300 83 1527 491 821 274 1510 506 1530 516 21 11 45 34 54 52
21 39 1014 3024 1014 3046 0 51 -74 122 -125 120 -11 0 -693 -224 -1515 -498z"/>
</g>
</svg>
